<svg xmlns="http://www.w3.org/2000/svg" xmlns:xlink="http://www.w3.org/1999/xlink" width="500" zoomAndPan="magnify" viewBox="0 0 375 112.499997" height="150" preserveAspectRatio="xMidYMid meet" version="1.0"><defs><g/></defs><g fill="#ffffff" fill-opacity="1"><g transform="translate(30.47934, 72.491724)"><g><path d="M 14.851562 -5.824219 L 5.980469 -5.824219 L 5.980469 -12.859375 L 18.253906 -12.859375 C 18.488281 -12.859375 18.683594 -13.054688 18.683594 -13.210938 L 18.683594 -18.175781 C 18.683594 -18.371094 18.488281 -18.527344 18.253906 -18.527344 L 5.980469 -18.527344 L 5.980469 -25.601562 L 14.851562 -25.601562 L 14.851562 -31.269531 L 0.429688 -31.269531 C 0.195312 -31.269531 0 -31.074219 0 -30.917969 L 0 -0.351562 C 0 -0.195312 0.195312 0 0.429688 0 L 14.851562 0 Z M 14.851562 -5.824219 "/></g></g></g><g fill="#ffffff" fill-opacity="1"><g transform="translate(54.396849, 72.491724)"><g><path d="M 32.480469 -25.523438 L 28.496094 -14.773438 L 22.320312 -31.035156 C 22.242188 -31.191406 22.085938 -31.269531 21.929688 -31.269531 L 16.613281 -31.269531 C 16.457031 -31.269531 16.300781 -31.191406 16.261719 -31.035156 L 10.046875 -14.773438 L 6.097656 -25.523438 L 0 -25.523438 L 9.695312 -0.234375 C 9.8125 0.078125 10.320312 0.078125 10.4375 -0.234375 L 19.269531 -23.414062 L 28.105469 -0.234375 C 28.222656 0.078125 28.730469 0.078125 28.847656 -0.234375 L 38.578125 -25.523438 Z M 32.480469 -25.523438 "/></g></g></g><g fill="#ffffff" fill-opacity="1"><g transform="translate(99.18193, 72.491724)"><g><path d="M 14.851562 -5.824219 L 5.980469 -5.824219 L 5.980469 -12.859375 L 18.253906 -12.859375 C 18.488281 -12.859375 18.683594 -13.054688 18.683594 -13.210938 L 18.683594 -18.175781 C 18.683594 -18.371094 18.488281 -18.527344 18.253906 -18.527344 L 5.980469 -18.527344 L 5.980469 -25.601562 L 14.851562 -25.601562 L 14.851562 -31.269531 L 0.429688 -31.269531 C 0.195312 -31.269531 0 -31.074219 0 -30.917969 L 0 -0.351562 C 0 -0.195312 0.195312 0 0.429688 0 L 14.851562 0 Z M 14.851562 -5.824219 "/></g></g></g><g fill="#ffffff" fill-opacity="1"><g transform="translate(123.099443, 72.491724)"><g><path d="M 25.875 -31.269531 L 20.832031 -31.269531 C 20.558594 -31.269531 20.363281 -31.074219 20.363281 -30.917969 L 20.363281 -10.554688 L 5.941406 -31.152344 C 5.902344 -31.230469 5.667969 -31.269531 5.589844 -31.269531 L 0.390625 -31.269531 C 0.195312 -31.269531 0 -31.074219 0 -30.917969 L 0 -7.503906 L 5.980469 -7.503906 L 5.980469 -20.714844 L 20.363281 -0.117188 C 20.402344 -0.0390625 20.636719 0 20.714844 0 L 25.875 0 C 26.148438 0 26.304688 -0.195312 26.304688 -0.351562 L 26.304688 -30.917969 C 26.304688 -31.074219 26.148438 -31.269531 25.875 -31.269531 Z M 25.875 -31.269531 "/></g></g></g><g fill="#ffffff" fill-opacity="1"><g transform="translate(155.027913, 72.491724)"><g/></g></g><g fill="#ffffff" fill-opacity="1"><g transform="translate(169.097812, 72.491724)"><g><path d="M 17.863281 -5.746094 C 14.070312 -5.589844 6.019531 -5.980469 6.019531 -15.636719 C 6.019531 -23.0625 11.0625 -25.914062 17.863281 -25.5625 L 17.863281 -18.644531 L 23.84375 -18.644531 L 23.84375 -30.917969 C 23.84375 -31.074219 23.6875 -31.269531 23.414062 -31.269531 L 18.332031 -31.269531 C 10.671875 -31.269531 0 -29.511719 0 -15.636719 C 0 -2.265625 10.554688 0 18.332031 0 L 23.414062 0 C 23.6875 0 23.84375 -0.195312 23.84375 -0.351562 L 23.84375 -5.746094 Z M 17.863281 -5.746094 "/></g></g></g><g fill="#ffffff" fill-opacity="1"><g transform="translate(198.447142, 72.491724)"><g><path d="M 14.851562 -5.824219 L 5.980469 -5.824219 L 5.980469 -12.859375 L 18.253906 -12.859375 C 18.488281 -12.859375 18.683594 -13.054688 18.683594 -13.210938 L 18.683594 -18.175781 C 18.683594 -18.371094 18.488281 -18.527344 18.253906 -18.527344 L 5.980469 -18.527344 L 5.980469 -25.601562 L 14.851562 -25.601562 L 14.851562 -31.269531 L 0.429688 -31.269531 C 0.195312 -31.269531 0 -31.074219 0 -30.917969 L 0 -0.351562 C 0 -0.195312 0.195312 0 0.429688 0 L 14.851562 0 Z M 14.851562 -5.824219 "/></g></g></g><g fill="#ffffff" fill-opacity="1"><g transform="translate(222.36465, 72.491724)"><g><path d="M 21.34375 -0.507812 C 19.386719 -4.847656 17.277344 -9.148438 15.324219 -13.5625 C 18.449219 -14.695312 21.070312 -17.199219 21.070312 -21.96875 C 21.070312 -31.191406 12.273438 -31.269531 10.515625 -31.269531 L 0.390625 -31.269531 C 0.195312 -31.269531 0 -31.074219 0 -30.917969 L 0 -25.601562 L 10.515625 -25.601562 C 11.453125 -25.601562 15.128906 -25.40625 15.128906 -21.96875 C 15.128906 -18.527344 11.804688 -18.371094 10.515625 -18.371094 L 0 -18.371094 L 0 -0.351562 C 0 -0.195312 0.195312 0 0.390625 0 L 5.511719 0 C 5.746094 0 5.941406 -0.195312 5.941406 -0.351562 L 5.941406 -12.625 L 9.304688 -12.625 L 15.011719 -0.234375 C 15.050781 -0.117188 15.285156 0 15.402344 0 L 20.992188 0 C 21.304688 0 21.460938 -0.234375 21.34375 -0.507812 Z M 21.34375 -0.507812 "/></g></g></g><g fill="#ffffff" fill-opacity="1"><g transform="translate(249.134851, 72.491724)"><g><path d="M 16.300781 -25.445312 L 12.195312 -13.992188 L 6.097656 -31.035156 C 6.058594 -31.191406 5.902344 -31.269531 5.707031 -31.269531 L 0.390625 -31.269531 C 0.078125 -31.269531 -0.078125 -31.035156 0.0390625 -30.800781 L 11.804688 -0.195312 C 11.960938 0.078125 12.429688 0.078125 12.546875 -0.195312 L 22.320312 -25.445312 Z M 16.300781 -25.445312 "/></g></g></g><g fill="#ffffff" fill-opacity="1"><g transform="translate(276.882, 72.491724)"><g><path d="M 24.546875 -0.46875 L 12.664062 -31.035156 C 12.546875 -31.347656 12 -31.347656 11.882812 -31.035156 L 0.0390625 -0.46875 C -0.078125 -0.234375 0.078125 0 0.429688 0 L 5.785156 0 C 5.941406 0 6.136719 -0.078125 6.175781 -0.234375 L 12.273438 -17.667969 L 18.449219 -0.234375 C 18.488281 -0.078125 18.683594 0 18.800781 0 L 24.195312 0 C 24.46875 0 24.664062 -0.234375 24.546875 -0.46875 Z M 24.546875 -0.46875 "/></g></g></g><g fill="#ffffff" fill-opacity="1"><g transform="translate(306.973814, 72.491724)"><g><path d="M 14.34375 -17.355469 C 12.117188 -18.410156 9.929688 -18.410156 9.734375 -18.410156 C 7.738281 -18.410156 5.824219 -19.582031 5.824219 -21.851562 C 5.824219 -24.351562 7.582031 -25.640625 9.734375 -25.640625 C 11.765625 -25.640625 13.484375 -24.585938 13.5625 -22.359375 C 13.5625 -22.242188 13.757812 -22.046875 13.992188 -22.046875 L 18.878906 -22.046875 C 19.152344 -22.046875 19.347656 -22.242188 19.308594 -22.359375 C 19.230469 -27.675781 15.089844 -31.269531 9.734375 -31.269531 C 4.730469 -31.269531 0 -27.714844 0 -21.851562 C 0 -18.214844 1.835938 -15.441406 5.082031 -13.953125 C 7.347656 -12.898438 9.460938 -12.898438 9.734375 -12.898438 C 11.492188 -12.820312 13.640625 -11.414062 13.640625 -9.109375 C 13.640625 -7.035156 11.804688 -5.628906 9.734375 -5.628906 C 9.734375 -5.628906 9.734375 -5.628906 9.695312 -5.628906 L 9.695312 0 C 9.734375 0 9.734375 0 9.734375 0 C 14.734375 0 19.425781 -3.246094 19.425781 -9.109375 C 19.425781 -12.78125 17.628906 -15.832031 14.34375 -17.355469 Z M 14.34375 -17.355469 "/></g></g></g><g fill="#ffffff" fill-opacity="1"><g transform="translate(331.672895, 72.491724)"><g><path d="M 12.742188 -5.355469 L 9.617188 -5.355469 L 9.617188 -31.269531 L 3.636719 -31.269531 L 3.636719 -5.355469 L 0.429688 -5.355469 C 0.195312 -5.355469 0 -5.199219 0 -5.003906 L 0 -0.351562 C 0 -0.195312 0.195312 0 0.429688 0 L 12.742188 0 C 13.015625 0 13.171875 -0.195312 13.171875 -0.351562 L 13.171875 -5.003906 C 13.171875 -5.199219 13.015625 -5.355469 12.742188 -5.355469 Z M 12.742188 -5.355469 "/></g></g></g><path stroke-linecap="butt" transform="matrix(-0.742132, 0, 0, -0.742132, 369.212572, 29.272265)" fill="none" stroke-linejoin="miter" d="M 0.00220217 4.998793 L 84.434831 4.998793 " stroke="#ffffff" stroke-width="10" stroke-opacity="1" stroke-miterlimit="4"/><path stroke-linecap="butt" transform="matrix(0, -0.742132, 0.742132, 0, 361.795051, 85.272245)" fill="none" stroke-linejoin="miter" d="M -0.00160744 4.997568 L 82.462453 4.997568 " stroke="#ffffff" stroke-width="10" stroke-opacity="1" stroke-miterlimit="4"/><path stroke-linecap="butt" transform="matrix(0.742132, 0, 0, 0.742132, 5.778116, 82.726083)" fill="none" stroke-linejoin="miter" d="M -0.00104097 5.00102 L 84.431588 5.00102 " stroke="#ffffff" stroke-width="10" stroke-opacity="1" stroke-miterlimit="4"/><path stroke-linecap="butt" transform="matrix(0, 0.742132, -0.742132, 0, 13.195632, 26.726103)" fill="none" stroke-linejoin="miter" d="M 0.000618929 5.000804 L 82.46468 5.000804 " stroke="#ffffff" stroke-width="10" stroke-opacity="1" stroke-miterlimit="4"/></svg>